<svg xmlns="http://www.w3.org/2000/svg" xmlns:xlink="http://www.w3.org/1999/xlink" width="500" zoomAndPan="magnify" viewBox="0 0 375 374.999991" height="500" preserveAspectRatio="xMidYMid meet" version="1.0"><defs><clipPath id="6ca6d20417"><path d="M 82.011719 40 L 265 40 L 265 292 L 82.011719 292 Z M 82.011719 40 " clip-rule="nonzero"/></clipPath><clipPath id="d66baaa871"><path d="M 283 9.085938 L 292.761719 9.085938 L 292.761719 366.085938 L 283 366.085938 Z M 283 9.085938 " clip-rule="nonzero"/></clipPath></defs><g clip-path="url(#6ca6d20417)"><path fill="#000000" d="M 82.15625 105.800781 L 82.15625 268.472656 C 82.15625 281.230469 92.585938 291.675781 105.328125 291.675781 L 186.0625 291.675781 C 173.242188 274.945312 165.632812 254.011719 165.632812 231.304688 C 165.632812 176.480469 210 132.042969 264.738281 132.042969 L 264.738281 40.816406 L 229.128906 40.816406 C 221.355469 40.816406 214.164062 44.976562 210.273438 51.714844 L 192.472656 82.605469 L 105.328125 82.605469 C 92.585938 82.605469 82.15625 93.042969 82.15625 105.800781 Z M 109.316406 106.085938 C 109.316406 104.230469 110.832031 102.722656 112.671875 102.722656 L 165.324219 102.722656 C 167.171875 102.722656 168.679688 104.242188 168.679688 106.085938 L 168.679688 119.546875 C 168.679688 121.402344 167.164062 122.910156 165.324219 122.910156 L 112.683594 122.910156 C 110.832031 122.910156 109.324219 121.390625 109.324219 119.546875 L 109.324219 106.085938 Z M 109.316406 106.085938 " fill-opacity="1" fill-rule="nonzero"/></g><path fill="#000000" d="M 254.96875 166.234375 C 251.921875 166.679688 248.941406 167.339844 246.039062 168.195312 C 254.105469 173.546875 259.429688 182.722656 259.429688 193.144531 C 259.429688 209.660156 246.066406 223.046875 229.574219 223.046875 C 218.496094 223.046875 208.828125 216.992188 203.671875 208.011719 C 202.175781 212.113281 201.078125 216.417969 200.429688 220.859375 C 194.570312 261.164062 225.617188 295.75 264.730469 295.75 L 264.730469 314.652344 C 242.324219 314.652344 221.261719 305.910156 205.421875 290.046875 C 189.578125 274.183594 180.855469 253.085938 180.855469 230.644531 C 180.855469 208.203125 189.578125 187.105469 205.421875 171.242188 C 221.261719 155.375 242.324219 146.636719 264.730469 146.636719 L 264.730469 165.539062 C 261.527344 165.523438 258.265625 165.753906 254.96875 166.234375 Z M 254.96875 166.234375 " fill-opacity="1" fill-rule="nonzero"/><g clip-path="url(#d66baaa871)"><path fill="#000000" d="M 283.34375 9.085938 L 292.628906 9.085938 L 292.628906 366.113281 L 283.34375 366.113281 Z M 283.34375 9.085938 " fill-opacity="1" fill-rule="nonzero"/></g></svg>